<svg width="147" height="27" viewBox="0 0 147 27" fill="none" xmlns="http://www.w3.org/2000/svg">
<path d="M17.1338 14.3652H21.5283C22.583 14.3652 23.2959 14.0674 23.667 13.4717C24.0479 12.8662 24.2383 11.875 24.2383 10.498C24.2383 8.52539 23.8037 7.28516 22.9346 6.77734C22.5928 6.58203 22.1729 6.47949 21.6748 6.46973H17.1338V14.3652ZM12.7832 25V3.37891H21.2646C23.6768 3.37891 25.4541 3.92578 26.5967 5.01953C27.7393 6.11328 28.3105 7.89551 28.3105 10.3662C28.3105 12.8369 27.7588 14.6533 26.6553 15.8154C25.5615 16.9678 23.623 17.5439 20.8398 17.5439H17.1338V25H12.7832ZM36.8799 17.9834H43.6475L40.3223 6.61621L36.8799 17.9834ZM30.2148 25L37.334 3.37891H43.1055L50.3125 25H45.6982L44.4824 20.8838H36.0156L34.7559 25H30.2148ZM58.4717 13.3545H63.8184C64.8438 13.3545 65.5469 13.0664 65.9277 12.4902C66.3184 11.9043 66.5137 11.0205 66.5137 9.83887C66.5137 7.59277 65.6738 6.46973 63.9941 6.46973H58.4717V13.3545ZM54.1211 25V3.37891H63.4521C66.2451 3.37891 68.1445 3.94531 69.1504 5.07812C70.166 6.21094 70.6738 7.74902 70.6738 9.69238C70.6738 11.626 70.3906 13.0371 69.8242 13.9258C69.2676 14.8047 68.4912 15.4395 67.4951 15.8301L71.6699 25H67.1582L63.3643 16.46H58.4717V25H54.1211ZM79.6533 25V6.68945H73.6328V3.37891H90.0098V6.68945H83.9893V25H79.6533ZM93.3496 25V3.37891H97.7148V12.5781H107.207V3.37891H111.572V25H107.207V15.9912H97.7148V25H93.3496Z" fill="white"/>
<path d="M117.035 21L122.592 6.19531H124.965L119.408 21H117.035ZM127.484 20.6973V18.4609L132.982 15.5703L127.484 12.7188V10.4434L134.75 14.5059V16.6445L127.484 20.6973Z" fill="#5918DF"/>
<path d="M8.35938 20.6973L1.09375 16.6543V14.5156L8.35938 10.4434V12.6992L2.86133 15.5703L8.35938 18.4414V20.6973Z" fill="#5918DF"/>
</svg>
